<?xml version="1.0" encoding="UTF-8"?><svg id="Layer_2" xmlns="http://www.w3.org/2000/svg" viewBox="0 0 1000 2166.42"><defs><style>.cls-1{fill:#fff;}</style></defs><g id="Layer_1-2"><path class="cls-1" d="m470.42,849.57c10.8,16.99,3.13,25.45-11.13,25.7-3.72.02-7.44.05-11.16.08,8.73,12.79,17.46,25.58,26.19,38.37-3.98.52-7.95,1.04-11.92,1.59-22.59-32.63-45.17-65.27-67.76-97.9,9.66,1.34,19.33,2.62,29.01,3.83,15.67,2.09,35.73,10.98,46.77,28.34Zm-14.58-.51c-6.48-9.87-16.3-14.56-24.85-15.44-4.06-.4-8.11-.81-12.16-1.23,6.86,10.05,13.72,20.1,20.58,30.15,3.9.11,7.79.22,11.69.32,7.98.18,10.97-4.33,4.74-13.82Z"/><path class="cls-1" d="m563.25,904.51c-4.36.34-8.72.69-13.08,1.06-5.41-6.5-10.94-13.09-16.61-19.77-6.66.21-13.32.44-19.97.68,2.59,7.15,5.3,14.4,8.13,21.75-4.23.43-8.46.88-12.69,1.34-11.11-28.98-20.2-56.16-27.27-81.82,5.3.52,10.59,1.02,15.89,1.51,23.87,26.49,45.73,51.48,65.59,75.26Zm-38.24-28.84c-3.69-4.32-7.42-8.67-11.21-13.06-4.39-5.12-11.94-14.26-14.44-17.23.97,2.85,4.12,11.73,5.92,17.02,1.44,4.42,2.94,8.87,4.49,13.37,5.08-.04,10.16-.07,15.24-.11Z"/><path class="cls-1" d="m583.97,844.33c-6.57-.27-13.14-.57-19.71-.89,8.84,19.72,17.68,39.44,26.52,59.15-4,.25-7.99.51-11.99.78-9.83-20.24-19.67-40.47-29.5-60.71-6.57-.36-13.13-.74-19.7-1.14-1.77-3.34-3.54-6.68-5.31-10.01,18.69,1.47,37.39,2.71,56.11,3.71,1.2,3.04,2.39,6.08,3.59,9.12Z"/><path class="cls-1" d="m667.18,899.58c-4,.07-8,.15-12.01.25-1.88-9.59-3.75-19.19-5.63-28.78-9.07-.01-18.14-.03-27.21-.05,2.94,9.86,5.89,19.72,8.83,29.58-4,.15-8,.32-12,.5-7.51-21.69-15.03-43.37-22.54-65.06,5.15.24,10.31.45,15.46.65,2.54,8.52,5.09,17.04,7.63,25.56,9.39.12,18.77.21,28.16.29-1.62-8.29-3.24-16.58-4.86-24.87,5.16.13,10.31.24,15.47.33,2.9,20.53,5.8,41.07,8.69,61.6Z"/><path class="cls-1" d="m723.79,899.52c-13.15-.2-26.3-.25-39.46-.15-1.25-20.37-2.5-40.74-3.75-61.11,5.16.04,10.31.06,15.47.06.08,17.54.16,35.09.24,52.63,9.51,0,19.02.04,28.53.14-.35,2.81-.7,5.62-1.05,8.43Z"/><path class="cls-1" d="m748.17,900.07c-4-.12-8-.22-12-.31,3.73-20.67,7.47-41.33,11.2-62,5.16-.12,10.31-.25,15.47-.41-4.89,20.91-9.78,41.81-14.67,62.72Z"/><path class="cls-1" d="m822.55,882.7c-5.76,11.88-17.3,21.14-34.27,20.07-17.78-1.1-21.1-15.96-15.97-34.14,5.4-19.18,20.17-33.16,43.63-34.53,18.14-1.06,23.55,4.82,21.51,15.2-5.29,1.07-10.55,2.11-15.76,3.11.68-6.92-2.28-9.21-9.95-8.88-11.94.55-20.55,11.11-25.27,25.01-3.74,11.03-5.06,24.36,6.43,24.84,8.33.33,13.08-3.43,16.77-11.82.71-1.62,1.42-3.24,2.13-4.86-3.53-.02-7.06-.05-10.58-.07,1.24-3.06,2.47-6.11,3.71-9.17,8.34-.07,16.68-.16,25.01-.25-2.46,5.16-4.92,10.32-7.38,15.47Z"/><path class="cls-1" d="m876.33,908.58c-3.98-.41-7.97-.81-11.96-1.2,7.43-12.28,14.87-24.56,22.3-36.85-9.04.05-18.08.1-27.13.15-6.37,11.52-12.74,23.03-19.11,34.55-3.99-.33-7.98-.65-11.98-.95,12.61-24.15,25.21-48.3,37.82-72.45,5.15-.4,10.29-.81,15.43-1.24-5.5,9.95-11.01,19.91-16.51,29.86,9.37-.25,18.72-.53,28.08-.83,6.42-10.61,12.85-21.23,19.27-31.84,5.14-.51,10.28-1.03,15.41-1.57-17.21,27.46-34.42,54.92-51.63,82.38Z"/><path class="cls-1" d="m990.71,830.83c-6.53.71-13.07,1.4-19.6,2.06-18.19,26.78-36.37,53.56-54.56,80.34-3.98-.51-7.95-1-11.93-1.48,17.2-25.8,34.39-51.6,51.59-77.4-6.54.63-13.09,1.23-19.63,1.81,2.52-3.91,5.05-7.82,7.58-11.72,18.64-2.11,37.26-4.45,55.86-7.03-3.1,4.48-6.2,8.95-9.29,13.43Z"/><path class="cls-1" d="m588.37,942.32h9.35c2.88,0,5.4.58,7.53,1.74,2.14,1.16,3.79,2.78,4.95,4.87s1.74,4.5,1.74,7.22-.58,5.14-1.74,7.23-2.81,3.71-4.95,4.87c-2.14,1.16-4.65,1.74-7.53,1.74h-9.35v-27.66Zm9.12,22.72c2.99,0,5.27-.79,6.86-2.38,1.58-1.58,2.38-3.75,2.38-6.51s-.79-4.93-2.38-6.51-3.87-2.38-6.86-2.38h-3.9v17.77h3.9Z"/><path class="cls-1" d="m630.15,968.69c-2.2-1.28-3.93-3.02-5.2-5.24-1.26-2.21-1.89-4.65-1.89-7.3s.63-5.09,1.89-7.3c1.26-2.22,2.99-3.96,5.2-5.24s4.66-1.91,7.36-1.91,5.16.64,7.36,1.91c2.2,1.28,3.93,3.02,5.2,5.24,1.26,2.22,1.89,4.65,1.89,7.3s-.63,5.09-1.89,7.3c-1.26,2.22-2.99,3.96-5.2,5.24-2.2,1.27-4.65,1.91-7.36,1.91s-5.16-.64-7.36-1.91Zm12.02-4.23c1.4-.8,2.51-1.92,3.32-3.36.81-1.44,1.22-3.09,1.22-4.95s-.41-3.5-1.22-4.94c-.81-1.44-1.92-2.56-3.32-3.36-1.4-.8-2.96-1.2-4.65-1.2s-3.26.4-4.68,1.2c-1.42.8-2.53,1.92-3.34,3.36-.81,1.44-1.22,3.09-1.22,4.94s.41,3.5,1.22,4.95c.81,1.44,1.92,2.56,3.34,3.36,1.42.8,2.98,1.2,4.68,1.2s3.25-.4,4.65-1.2Z"/><polygon class="cls-1" points="668.92 947.26 661.2 947.26 661.2 942.32 681.87 942.32 681.87 947.26 674.14 947.26 674.14 969.98 668.92 969.98 668.92 947.26"/><polygon class="cls-1" points="716.21 955.53 707.83 942.32 714.28 942.32 719.65 951.36 719.96 951.36 725.33 942.32 731.78 942.32 723.4 955.53 732.48 969.98 725.99 969.98 719.96 960.01 719.65 960.01 713.62 969.98 707.13 969.98 716.21 955.53"/><polygon class="cls-1" points="750.75 957.12 741.44 942.32 747.66 942.32 753.18 951.48 753.49 951.48 758.83 942.32 765.12 942.32 755.97 957.12 755.97 969.98 750.75 969.98 750.75 957.12"/><polygon class="cls-1" points="774.43 964.73 788.46 947.26 775.05 947.26 775.05 942.32 794.52 942.32 794.52 947.57 780.65 965.04 794.68 965.04 794.68 969.98 774.43 969.98 774.43 964.73"/><polygon class="cls-1" points="1.5 1039.13 292.73 1039.13 292.73 832.08 209.52 748.87 1.5 748.87 1.5 1039.13"/><polygon class="cls-1" points="916.79 0 1.5 0 1.5 208.02 84.71 291.23 708.77 291.23 708.77 374.44 1.5 374.44 1.5 664.69 916.79 664.69 1000 581.48 1000 83.21 916.79 0"/><polygon class="cls-1" points="291.23 1127.29 0 1127.29 0 1791.98 208.02 1791.98 291.23 1708.77 291.23 1127.29"/><polygon class="cls-1" points="0 2166.42 0 1875.19 832.08 1875.19 915.29 1958.4 915.29 2166.42 0 2166.42"/><path class="cls-1" d="m790.48,1781.74c-12.79-7.47-22.92-17.6-30.39-30.39-7.48-12.78-11.22-26.65-11.22-41.6s3.74-28.82,11.22-41.6c7.47-12.78,17.6-22.91,30.39-30.39,12.78-7.47,26.65-11.21,41.6-11.21s28.81,3.74,41.6,11.21c12.78,7.48,22.91,17.61,30.39,30.39,7.47,12.79,11.22,26.65,11.22,41.6s-3.74,28.82-11.22,41.6c-7.48,12.79-17.61,22.91-30.39,30.39-12.79,7.48-26.65,11.22-41.6,11.22s-28.82-3.74-41.6-11.22Zm74.71-15.01c10.01-5.91,17.97-13.93,23.88-24.06,5.91-10.13,8.86-21.1,8.86-32.92s-2.95-23.09-8.86-33.1c-5.91-10.01-13.87-17.96-23.88-23.88-10.01-5.91-21.05-8.86-33.1-8.86s-22.79,2.96-32.92,8.86c-10.13,5.91-18.15,13.87-24.06,23.88-5.91,10.01-8.87,21.05-8.87,33.1s3.01,22.74,9.04,32.74c6.02,10.01,14.05,18.03,24.06,24.06,10.01,6.03,20.92,9.04,32.74,9.04s23.09-2.95,33.1-8.86Zm-60.96-97.86h34.73c6.99,0,13.14,2.53,18.45,7.6,5.3,5.06,7.96,11.21,7.96,18.45,0,5.55-1.75,10.55-5.24,15.02-3.5,4.47-7.78,7.41-12.85,8.86l-.72.72,21.71,30.39v.73h-18.81l-19.9-30.39h-8.68v30.39h-16.64v-81.76Zm33.29,36.18c3.13,0,5.79-.96,7.96-2.89,2.17-1.93,3.26-4.34,3.26-7.24,0-2.65-1.03-5-3.08-7.05-2.05-2.05-4.65-3.08-7.78-3.08h-17.01v20.26h16.64Z"/><path class="cls-1" d="m749.22,1215.01v-17.34h72.81v-68.65h19.42v68.65h73.5v17.34h-53.39v48.54c0,7.4,3.69,11.1,11.09,11.1h11.79c6.93,0,10.63-3.47,11.09-10.4,1.39-5.54,2.31-13.63,2.77-24.27,6.47,3.24,12.48,5.55,18.03,6.93v2.77c-1.39,10.17-2.77,18.03-4.16,23.58-2.32,12.02-10.87,17.79-25.65,17.33h-19.42c-16.19,0-24.27-7.63-24.27-22.88v-52.7h-29.82v6.93c0,34.22-17.8,58.47-53.39,72.81-1.85-2.32-4.63-6.01-8.32-11.09-1.85-2.32-3.24-4.16-4.16-5.55,30.96-10.16,46.46-29.12,46.46-56.86v-2.77c.45-1.39.69-2.54.69-3.46h-45.07Zm40.91-27.74c-13.41-16.18-23.81-28.19-31.2-36.06l13.87-11.09c10.16,10.64,20.8,22.19,31.9,34.67l-14.56,12.48Zm80.43.69l-13.17-12.48c11.55-11.55,22.19-23.58,31.9-36.06l14.56,11.09c-6.48,8.79-17.57,21.27-33.28,37.45Z"/><path class="cls-1" d="m778.69,1408.81c-10.64-7.39-21.04-14.1-31.2-20.11l9.01-12.48c9.24,4.63,19.87,11.09,31.9,19.41l-9.71,13.17Zm-21.5,92.92l-8.32-18.72c2.31-1.84,5.77-4.85,10.4-9.02,3.69-3.69,6.47-6.47,8.32-8.32v-32.59h-17.33v-16.64h34.67v49.23c6.93,11.56,19.87,17.33,38.83,17.33h94.3c-.47.92-1.16,2.54-2.08,4.85-1.85,4.62-3.01,8.55-3.47,11.79h-56.86c-13.87,0-25.65-.24-35.36-.69-20.35,0-34.91-6.24-43.69-18.72-7.87,7.39-14.33,14.56-19.41,21.5Zm24.96-125.5c-11.09-7.86-21.5-14.79-31.2-20.8l9.02-11.79c1.39.93,3.47,2.08,6.24,3.47,11.09,6.01,19.64,11.09,25.66,15.25l-9.71,13.87Zm15.25-4.85v-14.56h30.51c-1.39-1.84-3.47-4.61-6.24-8.32-2.77-3.23-4.85-5.78-6.24-7.63l17.33-4.16c5.08,6.01,9.94,12.72,14.56,20.11h-.69,18.03l11.79-20.11,18.72,4.16-11.09,15.95h31.2v14.56h-54.08l-3.47,13.17h47.84v86.68h-101.24v-86.68h35.36l2.77-13.17h-45.07Zm24.27,25.66v12.48h66.57v-12.48h-66.57Zm0,24.27v12.48h66.57v-12.48h-66.57Zm0,24.27v12.48h66.57v-12.48h-66.57Z"/></g></svg>