<?xml version="1.0" encoding="UTF-8"?><svg id="Layer_2" xmlns="http://www.w3.org/2000/svg" viewBox="0 0 2000 315"><defs><style>.cls-1{fill:#fff;}</style></defs><g id="Layer_1-2"><path class="cls-1" d="m911.12,66.15c22.21,34.92,6.44,52.33-22.88,52.84-7.65.05-15.29.1-22.94.15,17.95,26.29,35.9,52.59,53.84,78.88-8.17,1.06-16.35,2.15-24.51,3.26-46.44-67.1-92.88-134.19-139.32-201.29,19.87,2.76,39.75,5.39,59.64,7.88,32.23,4.3,73.46,22.58,96.16,58.26Zm-29.98-1.04c-13.32-20.29-33.51-29.93-51.09-31.74-8.34-.82-16.68-1.66-25.01-2.52,14.11,20.67,28.21,41.33,42.32,62,8.01.23,16.02.45,24.03.67,16.42.36,22.57-8.89,9.76-28.41Z"/><path class="cls-1" d="m1102,179.1c-8.96.69-17.93,1.42-26.88,2.19-11.12-13.37-22.5-26.91-34.15-40.64-13.7.44-27.39.9-41.07,1.39,5.32,14.7,10.89,29.6,16.72,44.72-8.7.88-17.39,1.8-26.08,2.75-22.84-59.59-41.53-115.47-56.06-168.24,10.89,1.07,21.78,2.1,32.67,3.1,49.07,54.46,94.03,105.84,134.86,154.74Zm-78.62-59.3c-7.58-8.87-15.26-17.82-23.05-26.84-9.02-10.52-24.56-29.33-29.69-35.44,1.99,5.87,8.48,24.12,12.17,35,2.97,9.08,6.05,18.25,9.23,27.49,10.45-.08,20.89-.15,31.34-.22Z"/><path class="cls-1" d="m1144.59,55.38c-13.51-.56-27.03-1.17-40.53-1.83,18.17,40.54,36.35,81.08,54.52,121.63-8.22.51-16.43,1.04-24.65,1.6-20.22-41.61-40.44-83.21-60.66-124.82-13.5-.74-27-1.52-40.5-2.35-3.64-6.86-7.28-13.73-10.92-20.59,38.43,3.03,76.88,5.57,115.36,7.62,2.46,6.25,4.92,12.5,7.38,18.75Z"/><path class="cls-1" d="m1315.68,168.98c-8.23.14-16.46.31-24.69.51-3.86-19.72-7.71-39.45-11.57-59.17-18.65-.03-37.3-.06-55.95-.11,6.05,20.27,12.11,40.55,18.16,60.82-8.22.31-16.45.66-24.67,1.03-15.45-44.59-30.9-89.18-46.35-133.77,10.6.49,21.19.93,31.79,1.34,5.23,17.52,10.46,35.04,15.69,52.56,19.3.24,38.6.44,57.91.59-3.33-17.05-6.67-34.09-10-51.14,10.6.26,21.2.49,31.81.67,5.96,42.22,11.92,84.44,17.88,126.65Z"/><path class="cls-1" d="m1432.08,168.85c-27.04-.41-54.08-.52-81.12-.32-2.57-41.88-5.14-83.76-7.7-125.64,10.6.08,21.21.12,31.81.13.17,36.07.33,72.14.5,108.21,19.56,0,39.11.09,58.67.28-.72,5.78-1.44,11.55-2.15,17.33Z"/><path class="cls-1" d="m1482.2,169.97c-8.23-.24-16.46-.45-24.68-.64,7.68-42.49,15.36-84.98,23.03-127.48,10.6-.24,21.2-.52,31.81-.84-10.05,42.98-20.1,85.97-30.16,128.95Z"/><path class="cls-1" d="m1635.15,134.27c-11.84,24.42-35.56,43.47-70.47,41.27-36.56-2.26-43.39-32.81-32.83-70.2,11.11-39.45,41.47-68.18,89.7-71,37.29-2.17,48.42,9.91,44.22,31.26-10.89,2.2-21.69,4.33-32.4,6.4,1.4-14.23-4.68-18.95-20.46-18.26-24.55,1.14-42.26,22.84-51.96,51.43-7.7,22.69-10.41,50.08,13.22,51.08,17.13.67,26.9-7.05,34.49-24.3,1.46-3.33,2.92-6.67,4.37-10-7.25-.05-14.51-.1-21.76-.14,2.54-6.28,5.08-12.57,7.62-18.85,17.15-.15,34.29-.32,51.42-.51-5.06,10.61-10.11,21.21-15.16,31.82Z"/><path class="cls-1" d="m1745.71,187.47c-8.19-.85-16.39-1.67-24.59-2.46,15.29-25.25,30.57-50.51,45.85-75.76-18.59.11-37.18.21-55.79.3-13.09,23.68-26.19,47.36-39.28,71.04-8.21-.68-16.42-1.33-24.63-1.95,25.92-49.66,51.84-99.32,77.77-148.97,10.58-.81,21.16-1.67,31.73-2.56-11.32,20.46-22.63,40.93-33.95,61.39,19.26-.52,38.5-1.09,57.74-1.7,13.21-21.82,26.42-43.65,39.63-65.47,10.56-1.04,21.13-2.11,31.68-3.23-35.39,56.46-70.77,112.92-106.16,169.38Z"/><path class="cls-1" d="m1980.89,27.61c-13.43,1.46-26.87,2.87-40.3,4.23-37.4,55.06-74.79,110.13-112.18,165.19-8.18-1.04-16.36-2.06-24.54-3.04,35.36-53.04,70.72-106.09,106.07-159.13-13.45,1.29-26.91,2.53-40.37,3.71,5.19-8.04,10.39-16.07,15.58-24.11,38.33-4.33,76.61-9.15,114.85-14.46-6.37,9.2-12.74,18.4-19.11,27.61Z"/><path class="cls-1" d="m1153.65,256.85h19.22c5.93,0,11.09,1.19,15.49,3.57,4.4,2.38,7.79,5.72,10.17,10.01s3.57,9.24,3.57,14.85-1.19,10.57-3.57,14.86-5.77,7.63-10.17,10.01c-4.4,2.38-9.56,3.57-15.49,3.57h-19.22v-56.88Zm18.75,46.71c6.14,0,10.84-1.63,14.1-4.88,3.26-3.26,4.89-7.72,4.89-13.39s-1.63-10.13-4.89-13.38-7.96-4.89-14.1-4.89h-8.02v36.54h8.02Z"/><path class="cls-1" d="m1239.56,311.07c-4.53-2.62-8.09-6.21-10.68-10.76-2.6-4.55-3.89-9.56-3.89-15.01s1.3-10.46,3.89-15.01c2.59-4.56,6.16-8.14,10.68-10.76s9.57-3.93,15.13-3.93,10.6,1.31,15.13,3.93c4.53,2.62,8.09,6.21,10.69,10.76,2.59,4.56,3.89,9.56,3.89,15.01s-1.3,10.46-3.89,15.01c-2.6,4.56-6.16,8.14-10.69,10.76-4.53,2.62-9.57,3.93-15.13,3.93s-10.61-1.31-15.13-3.93Zm24.7-8.7c2.89-1.64,5.16-3.94,6.83-6.91,1.67-2.96,2.5-6.35,2.5-10.17s-.83-7.2-2.5-10.17c-1.67-2.96-3.95-5.27-6.83-6.91-2.89-1.64-6.08-2.46-9.57-2.46s-6.7.82-9.61,2.46c-2.91,1.64-5.2,3.95-6.87,6.91-1.67,2.97-2.5,6.35-2.5,10.17s.83,7.2,2.5,10.17c1.67,2.97,3.96,5.27,6.87,6.91,2.91,1.64,6.12,2.46,9.61,2.46s6.68-.82,9.57-2.46Z"/><polygon class="cls-1" points="1319.27 267.02 1303.38 267.02 1303.38 256.85 1345.88 256.85 1345.88 267.02 1329.99 267.02 1329.99 313.73 1319.27 313.73 1319.27 267.02"/><polygon class="cls-1" points="1416.5 284.02 1399.26 256.85 1412.53 256.85 1423.57 275.44 1424.21 275.44 1435.25 256.85 1448.51 256.85 1431.28 284.02 1449.94 313.73 1436.6 313.73 1424.21 293.23 1423.57 293.23 1411.18 313.73 1397.83 313.73 1416.5 284.02"/><polygon class="cls-1" points="1487.52 287.27 1468.37 256.85 1481.16 256.85 1492.52 275.68 1493.16 275.68 1504.12 256.85 1517.07 256.85 1498.24 287.27 1498.24 313.73 1487.52 313.73 1487.52 287.27"/><polygon class="cls-1" points="1536.21 302.92 1565.05 267.02 1537.48 267.02 1537.48 256.85 1577.52 256.85 1577.52 267.65 1549 303.56 1577.84 303.56 1577.84 313.73 1536.21 313.73 1536.21 302.92"/><polygon class="cls-1" points="0 315 88.28 315 88.28 252.23 63.06 227.01 0 227.01 0 315"/><polygon class="cls-1" points="277.46 0 0 0 0 63.06 25.22 88.28 214.4 88.28 214.4 113.51 0 113.51 0 201.49 277.46 201.49 302.68 176.27 302.68 25.22 277.46 0"/><polygon class="cls-1" points="416.19 0 327.9 0 327.9 201.49 390.96 201.49 416.19 176.27 416.19 0"/><polygon class="cls-1" points="327.9 315 327.9 226.71 580.14 226.71 605.36 251.94 605.36 315 327.9 315"/><path class="cls-1" d="m567.53,198.39c-3.88-2.27-6.95-5.34-9.21-9.21-2.27-3.87-3.4-8.08-3.4-12.61s1.13-8.74,3.4-12.61c2.26-3.87,5.33-6.94,9.21-9.21,3.87-2.26,8.08-3.4,12.61-3.4s8.73,1.13,12.61,3.4c3.87,2.27,6.94,5.34,9.21,9.21,2.26,3.88,3.4,8.08,3.4,12.61s-1.14,8.74-3.4,12.61c-2.27,3.88-5.34,6.95-9.21,9.21-3.88,2.27-8.08,3.4-12.61,3.4s-8.74-1.13-12.61-3.4Zm22.65-4.55c3.03-1.79,5.45-4.22,7.24-7.29,1.79-3.07,2.69-6.4,2.69-9.98s-.9-7-2.69-10.03c-1.79-3.03-4.21-5.45-7.24-7.24-3.03-1.79-6.38-2.69-10.03-2.69s-6.91.9-9.98,2.69c-3.07,1.79-5.5,4.2-7.29,7.24-1.79,3.04-2.69,6.38-2.69,10.03s.91,6.89,2.74,9.92c1.83,3.03,4.26,5.47,7.29,7.29,3.03,1.83,6.34,2.74,9.93,2.74s7-.89,10.03-2.69Zm-18.48-29.67h10.53c2.12,0,3.98.77,5.59,2.3,1.61,1.54,2.41,3.4,2.41,5.59,0,1.68-.53,3.2-1.59,4.55-1.06,1.35-2.36,2.25-3.89,2.69l-.22.22,6.58,9.21v.22h-5.7l-6.03-9.21h-2.63v9.21h-5.04v-24.78Zm10.09,10.97c.95,0,1.75-.29,2.41-.88.66-.58.99-1.32.99-2.19,0-.8-.31-1.52-.93-2.14-.62-.62-1.41-.93-2.36-.93h-5.15v6.14h5.04Z"/><path class="cls-1" d="m555.02,26.59v-5.26h22.07V.53h5.89v20.81h22.28v5.26h-16.18v14.71c0,2.24,1.12,3.36,3.36,3.36h3.57c2.1,0,3.22-1.05,3.36-3.15.42-1.68.7-4.13.84-7.36,1.96.98,3.78,1.68,5.46,2.1v.84c-.42,3.08-.84,5.46-1.26,7.15-.7,3.64-3.29,5.39-7.78,5.25h-5.89c-4.91,0-7.36-2.31-7.36-6.94v-15.97h-9.04v2.1c0,10.37-5.4,17.73-16.18,22.07-.56-.7-1.4-1.82-2.52-3.36-.56-.7-.98-1.26-1.26-1.68,9.39-3.08,14.08-8.83,14.08-17.24v-.84c.14-.42.21-.77.21-1.05h-13.66Zm12.4-8.41c-4.07-4.9-7.22-8.55-9.46-10.93l4.2-3.36c3.08,3.22,6.31,6.73,9.67,10.51l-4.41,3.78Zm24.38.21l-3.99-3.78c3.5-3.5,6.73-7.15,9.67-10.93l4.41,3.36c-1.96,2.66-5.33,6.45-10.09,11.35Z"/><path class="cls-1" d="m563.95,85.34c-3.23-2.24-6.38-4.27-9.46-6.1l2.73-3.78c2.8,1.4,6.02,3.36,9.67,5.89l-2.94,3.99Zm-6.52,28.17l-2.52-5.68c.7-.56,1.75-1.47,3.15-2.73,1.12-1.12,1.96-1.96,2.52-2.52v-9.88h-5.25v-5.04h10.51v14.92c2.1,3.5,6.02,5.25,11.77,5.25h28.59c-.14.28-.35.77-.63,1.47-.56,1.4-.91,2.59-1.05,3.57h-17.24c-4.2,0-7.78-.07-10.72-.21-6.17,0-10.58-1.89-13.24-5.68-2.38,2.24-4.34,4.41-5.89,6.52Zm7.57-38.04c-3.36-2.38-6.52-4.48-9.46-6.31l2.73-3.57c.42.28,1.05.63,1.89,1.05,3.36,1.82,5.95,3.36,7.78,4.62l-2.94,4.2Zm4.62-1.47v-4.41h9.25c-.42-.56-1.05-1.4-1.89-2.52-.84-.98-1.47-1.75-1.89-2.31l5.25-1.26c1.54,1.82,3.01,3.86,4.41,6.1h-.21,5.47l3.57-6.1,5.68,1.26-3.36,4.83h9.46v4.41h-16.39l-1.05,3.99h14.5v26.27h-30.69v-26.27h10.72l.84-3.99h-13.66Zm7.36,7.78v3.78h20.18v-3.78h-20.18Zm0,7.36v3.78h20.18v-3.78h-20.18Zm0,7.36v3.78h20.18v-3.78h-20.18Z"/></g></svg>