<?xml version="1.0" encoding="UTF-8"?><svg id="Layer_2" xmlns="http://www.w3.org/2000/svg" viewBox="0 0 528 303"><defs><style>.cls-1{stroke:#f05a28;}.cls-1,.cls-2{fill:none;stroke-miterlimit:10;stroke-width:3px;}.cls-2{stroke:#ededed;}</style></defs><g id="Layer_1-2"><g><rect class="cls-2" x="1.5" y="226.5" width="75" height="75"/><rect class="cls-2" x="76.5" y="151.5" width="150" height="150"/><circle class="cls-1" cx="114" cy="189" r="12.5"/><circle class="cls-1" cx="189" cy="189" r="12.5"/><circle class="cls-1" cx="114" cy="264" r="12.5"/><circle class="cls-1" cx="39" cy="264" r="12.5"/><circle class="cls-1" cx="189" cy="264" r="12.5"/><circle class="cls-1" cx="151.5" cy="226.5" r="25"/><rect class="cls-2" x="226.5" y="1.5" width="300" height="300"/><line class="cls-1" x1="376.5" y1="26.5" x2="376.5" y2="276.5"/><line class="cls-1" x1="501.5" y1="151.5" x2="251.5" y2="151.5"/><line class="cls-1" x1="464.89" y1="63.11" x2="288.11" y2="239.89"/><line class="cls-1" x1="464.89" y1="239.89" x2="288.11" y2="63.11"/><line class="cls-1" x1="328.66" y1="36.02" x2="424.34" y2="266.98"/><line class="cls-1" x1="491.98" y1="103.66" x2="261.02" y2="199.34"/><line class="cls-1" x1="424.34" y1="36.02" x2="328.66" y2="266.98"/><line class="cls-1" x1="491.98" y1="199.34" x2="261.02" y2="103.66"/></g></g></svg>