<?xml version="1.0" encoding="UTF-8"?><svg id="Layer_2" xmlns="http://www.w3.org/2000/svg" viewBox="0 0 1135 610"><defs><style>.cls-1{stroke:#7d7d7d;}.cls-1,.cls-2{fill:none;stroke-miterlimit:10;stroke-width:10px;}.cls-2{stroke:#f05a28;}</style></defs><g id="Layer_1-2"><rect class="cls-1" x="80" y="455" width="150" height="150"/><rect class="cls-1" x="5" y="530" width="75" height="75"/><circle class="cls-2" cx="155" cy="530" r="25"/><g><rect class="cls-1" x="230" y="305" width="300" height="300"/><circle class="cls-2" cx="305" cy="380" r="25"/><circle class="cls-2" cx="455" cy="380" r="25"/><circle class="cls-2" cx="305" cy="530" r="25"/><circle class="cls-2" cx="455" cy="530" r="25"/><circle class="cls-2" cx="380" cy="455" r="50"/></g><g><rect class="cls-1" x="530" y="5" width="600" height="600"/><line class="cls-2" x1="830" y1="55" x2="830" y2="555"/><line class="cls-2" x1="1080" y1="305" x2="580" y2="305"/><line class="cls-2" x1="1006.78" y1="128.22" x2="653.22" y2="481.78"/><line class="cls-2" x1="1006.78" y1="481.78" x2="653.22" y2="128.22"/><line class="cls-2" x1="734.33" y1="74.03" x2="925.67" y2="535.97"/><line class="cls-2" x1="1060.97" y1="209.33" x2="599.03" y2="400.67"/><line class="cls-2" x1="925.67" y1="74.03" x2="734.33" y2="535.97"/><line class="cls-2" x1="1060.97" y1="400.67" x2="599.03" y2="209.33"/></g><rect class="cls-2" x="30" y="555" width="25" height="25"/></g></svg>