<svg width="500" height="224" viewBox="0 0 500 224" fill="none" xmlns="http://www.w3.org/2000/svg">
<g clip-path="url(#clip0_525_735)">
<path d="M167.935 0H165.834V223.139H167.935V0Z" fill="#BBBDBF"/>
<path d="M64.2499 51.9751C77.1662 51.953 88.5123 56.0888 96.7177 63.9183C105.078 71.9025 109.081 82.3639 109.214 94.5061H124.784C124.364 86.6546 124.386 68.7398 108.55 53.4127C92.7809 38.1298 72.4111 37.2451 64.2278 37.2451V51.9751H64.2499Z" fill="#F05A28"/>
<path d="M64.25 174.393C50.2278 174.327 38.7712 170.611 30.2782 163.157C21.7853 155.726 16.256 145.375 16.0127 130.181H0C0.265405 140.045 1.57031 158.314 17.8927 173.707C33.5737 188.504 54.8281 189.123 64.25 189.123V174.393Z" fill="#F05A28"/>
<path d="M64.2279 161.277H64.449C69.7129 161.277 74.4902 160.503 78.7809 158.933C83.0716 157.363 86.743 155.284 89.7952 152.718C92.8252 150.13 95.1917 147.233 96.8505 144.004C98.5314 140.775 99.3497 137.435 99.3497 133.985C99.3497 128.212 98.1333 123.546 95.7004 119.941C93.2675 116.358 90.2375 113.438 86.5882 111.204C82.9389 108.971 78.9799 107.201 74.6671 105.896C70.3543 104.591 66.3953 103.309 62.746 102.092C59.0967 100.876 56.0667 99.5045 53.6338 98.0006C51.2009 96.4745 49.9845 94.307 49.9845 91.476C49.9845 88.8441 51.2451 86.4112 53.7665 84.1995C56.2878 81.9657 59.6054 80.8599 64.1615 80.8599V64.1615C59.0967 64.1836 54.5406 64.9356 50.4932 66.4396C46.4015 67.9656 42.907 69.9562 40.0318 72.4333C37.1566 74.9104 34.9228 77.8298 33.3525 81.1695C31.7822 84.5092 31.0081 88.0037 31.0081 91.6309C31.0081 97.2044 32.2245 101.672 34.6574 105.056C37.0902 108.44 40.1203 111.204 43.7696 113.328C47.4189 115.451 51.3779 117.132 55.6907 118.326C59.9814 119.543 63.9624 120.781 67.6118 122.042C71.2611 123.302 74.2911 124.74 76.724 126.377C79.1569 127.991 80.3733 130.269 80.3733 133.211C80.3733 136.152 79.0463 138.895 76.4365 141.173C73.8045 143.451 69.8013 144.579 64.449 144.579C64.3827 144.579 64.2942 144.579 64.2279 144.579V161.277Z" fill="#1D1D1D"/>
<path d="M64.4712 80.8377C69.0273 80.8377 72.566 82.0542 75.0874 84.4871C77.6087 86.9199 78.8915 90.2596 78.8915 94.5061H96.3418C96.3418 90.149 95.5898 86.1458 94.0638 82.4523C92.5377 78.7587 90.3702 75.5518 87.5393 72.8093C84.7083 70.0889 81.3465 67.9656 77.4539 66.4396C73.5613 64.9135 69.2263 64.1615 64.4712 64.1615C64.3827 64.1615 64.3164 64.1615 64.25 64.1615V80.8599H64.4712" fill="#F05A28"/>
<path d="M64.2279 144.579C62.4143 144.579 60.7334 144.358 59.2074 143.982C58.9641 143.916 58.7208 143.849 58.4775 143.783C58.4775 143.783 58.4775 143.783 58.4554 143.783C58.2121 143.717 57.9909 143.628 57.7698 143.562H57.7255C57.5044 143.473 57.2832 143.407 57.0841 143.318C57.062 143.318 57.0399 143.296 56.9957 143.274C56.7966 143.186 56.5976 143.097 56.3985 143.009C56.3543 143.009 56.3322 142.965 56.2879 142.942C56.111 142.854 55.9119 142.765 55.735 142.677C55.6908 142.655 55.6465 142.633 55.5802 142.589C55.4254 142.5 55.2484 142.412 55.0936 142.323C55.0272 142.279 54.9609 142.235 54.9167 142.213C54.784 142.124 54.6291 142.036 54.4964 141.947C54.408 141.903 54.3416 141.837 54.2532 141.77C54.1426 141.682 54.0099 141.615 53.8993 141.527C53.7887 141.438 53.7002 141.372 53.5896 141.284C53.5012 141.217 53.4127 141.151 53.3242 141.085C53.1473 140.952 52.9925 140.797 52.8377 140.642C52.8377 140.642 52.7934 140.62 52.7934 140.598C49.9624 137.922 48.547 134.449 48.547 130.203H30.3225C30.3225 134.759 31.0966 138.939 32.6669 142.721C34.2372 146.503 36.4932 149.799 39.4126 152.585C42.3542 155.372 45.915 157.518 50.1173 159.044C50.1615 159.044 50.1836 159.044 50.2278 159.088C50.7144 159.265 51.201 159.42 51.7097 159.574C52.0414 159.685 52.3732 159.773 52.705 159.862C52.904 159.928 53.1252 159.973 53.3464 160.039C53.8108 160.149 54.2974 160.26 54.7618 160.371C54.8503 160.371 54.9388 160.415 55.0272 160.437C55.5802 160.548 56.1331 160.658 56.7081 160.747C56.7081 160.747 56.7524 160.747 56.7745 160.747C59.1189 161.123 61.6181 161.322 64.2501 161.322V144.623L64.2279 144.579Z" fill="#F05A28"/>
<path d="M189.565 201.796V152.121H205.6C209.117 152.121 212.08 152.807 214.447 154.156C216.813 155.505 218.605 157.341 219.799 159.641C220.993 161.941 221.613 164.551 221.613 167.448C221.613 170.345 221.016 172.955 219.821 175.278C218.627 177.6 216.836 179.436 214.491 180.785C212.125 182.134 209.205 182.819 205.689 182.819H193.082V178.75H205.578C208.188 178.75 210.333 178.263 212.058 177.29C213.783 176.317 215.044 174.968 215.907 173.287C216.747 171.584 217.189 169.66 217.189 167.492C217.189 165.325 216.769 163.401 215.907 161.698C215.066 159.995 213.761 158.668 212.058 157.694C210.333 156.721 208.166 156.235 205.534 156.235H194.166V201.818H189.632L189.565 201.796Z" fill="#1D1D1D"/>
<path d="M227.96 201.796V164.551H232.163V170.279H232.472C233.224 168.399 234.507 166.895 236.365 165.723C238.223 164.551 240.324 163.998 242.668 163.998C243.022 163.998 243.42 163.998 243.862 164.02C244.305 164.02 244.659 164.042 244.946 164.064V168.443C244.747 168.421 244.415 168.355 243.929 168.289C243.442 168.222 242.911 168.2 242.359 168.2C240.412 168.2 238.687 168.598 237.183 169.417C235.679 170.235 234.485 171.363 233.6 172.8C232.715 174.238 232.295 175.875 232.295 177.733V201.796H227.982H227.96Z" fill="#1D1D1D"/>
<path d="M262.905 202.57C259.676 202.57 256.845 201.752 254.39 200.115C251.913 198.478 249.989 196.222 248.596 193.347C247.202 190.45 246.517 187.132 246.517 183.35C246.517 179.568 247.202 176.184 248.596 173.265C249.989 170.368 251.913 168.112 254.39 166.475C256.845 164.86 259.698 164.042 262.905 164.042C266.112 164.042 268.965 164.86 271.42 166.497C273.875 168.134 275.8 170.39 277.193 173.287C278.586 176.184 279.294 179.524 279.294 183.35C279.294 187.177 278.608 190.472 277.215 193.347C275.822 196.222 273.898 198.5 271.42 200.115C268.965 201.752 266.112 202.57 262.905 202.57ZM262.905 198.611C265.493 198.611 267.683 197.925 269.474 196.532C271.266 195.139 272.637 193.303 273.566 190.981C274.495 188.681 274.959 186.115 274.959 183.35C274.959 180.586 274.495 178.02 273.566 175.698C272.637 173.376 271.266 171.496 269.474 170.102C267.683 168.687 265.493 168.001 262.905 168.001C260.318 168.001 258.15 168.709 256.337 170.102C254.545 171.518 253.174 173.376 252.245 175.698C251.316 178.02 250.852 180.586 250.852 183.35C250.852 186.115 251.316 188.681 252.245 190.981C253.174 193.303 254.545 195.139 256.337 196.532C258.128 197.925 260.318 198.611 262.905 198.611Z" fill="#1D1D1D"/>
<path d="M285.398 164.529H289.733V205.401C289.733 207.524 289.335 209.36 288.561 210.886C287.787 212.412 286.637 213.629 285.155 214.469C283.673 215.309 281.882 215.73 279.781 215.73H279.294C279.139 215.73 278.962 215.73 278.763 215.73L278.807 211.682H279.736C281.506 211.682 282.899 211.129 283.916 210.046C284.912 208.94 285.42 207.392 285.42 205.423V164.551L285.398 164.529ZM287.544 158.115C286.659 158.115 285.907 157.805 285.266 157.208C284.624 156.611 284.315 155.859 284.315 155.018C284.315 154.178 284.624 153.426 285.266 152.829C285.907 152.232 286.659 151.922 287.544 151.922C288.428 151.922 289.202 152.232 289.844 152.829C290.485 153.426 290.795 154.178 290.795 155.018C290.795 155.859 290.485 156.611 289.844 157.208C289.202 157.805 288.45 158.115 287.544 158.115Z" fill="#1D1D1D"/>
<path d="M312.845 202.57C309.373 202.57 306.365 201.752 303.822 200.137C301.278 198.523 299.332 196.267 297.939 193.369C296.567 190.472 295.86 187.154 295.86 183.394C295.86 179.635 296.545 176.317 297.939 173.398C299.31 170.478 301.234 168.2 303.689 166.541C306.144 164.883 308.975 164.064 312.182 164.064C314.195 164.064 316.141 164.44 318.021 165.17C319.901 165.9 321.582 167.028 323.086 168.532C324.59 170.036 325.762 171.938 326.647 174.238C327.531 176.516 327.951 179.236 327.951 182.355V184.478H298.845V180.674H323.528C323.528 178.285 323.041 176.118 322.09 174.216C321.117 172.292 319.79 170.788 318.087 169.66C316.384 168.532 314.416 167.979 312.182 167.979C309.815 167.979 307.736 168.62 305.945 169.859C304.154 171.12 302.738 172.778 301.743 174.857C300.725 176.936 300.217 179.192 300.195 181.647V183.925C300.195 186.889 300.703 189.477 301.743 191.666C302.76 193.878 304.22 195.581 306.122 196.797C308.024 198.014 310.258 198.611 312.845 198.611C314.615 198.611 316.163 198.346 317.49 197.793C318.817 197.24 319.945 196.51 320.852 195.581C321.759 194.652 322.466 193.635 322.931 192.507L327.023 193.834C326.447 195.404 325.541 196.842 324.236 198.169C322.953 199.496 321.338 200.557 319.436 201.354C317.512 202.15 315.323 202.548 312.823 202.548" fill="#1D1D1D"/>
<path d="M349.25 202.57C345.911 202.57 343.013 201.73 340.558 200.071C338.103 198.412 336.179 196.134 334.83 193.237C333.481 190.339 332.795 187.044 332.795 183.35C332.795 179.657 333.481 176.295 334.874 173.376C336.245 170.456 338.17 168.178 340.625 166.519C343.08 164.86 345.933 164.042 349.184 164.042C351.683 164.042 353.939 164.529 355.952 165.48C357.964 166.453 359.645 167.802 360.95 169.527C362.277 171.274 363.096 173.287 363.427 175.609H359.07C358.628 173.508 357.522 171.717 355.819 170.213C354.094 168.709 351.904 167.979 349.25 167.979C346.862 167.979 344.76 168.62 342.947 169.903C341.111 171.186 339.696 172.977 338.678 175.255C337.661 177.556 337.13 180.188 337.13 183.195C337.13 186.203 337.639 188.902 338.634 191.202C339.629 193.524 341.045 195.338 342.858 196.643C344.672 197.948 346.817 198.611 349.25 198.611C350.909 198.611 352.413 198.301 353.762 197.682C355.133 197.063 356.283 196.178 357.212 195.028C358.141 193.878 358.761 192.507 359.092 190.936H363.449C363.118 193.192 362.321 195.183 361.061 196.93C359.8 198.677 358.141 200.071 356.129 201.066C354.116 202.061 351.816 202.57 349.228 202.57" fill="#1D1D1D"/>
<path d="M384.637 168.289H366.855V164.529H384.637V168.289ZM372.407 155.593H376.742V192.042C376.742 193.59 377.007 194.807 377.538 195.692C378.069 196.576 378.776 197.196 379.617 197.572C380.479 197.925 381.386 198.124 382.359 198.124C382.934 198.124 383.421 198.08 383.819 198.014C384.217 197.948 384.571 197.859 384.881 197.793L385.81 201.685C385.389 201.84 384.881 201.995 384.261 202.128C383.642 202.26 382.89 202.327 381.983 202.327C380.391 202.327 378.865 201.973 377.405 201.287C375.945 200.602 374.751 199.562 373.8 198.191C372.871 196.82 372.385 195.117 372.385 193.082V155.616L372.407 155.593Z" fill="#1D1D1D"/>
<path d="M215.951 99.9691C215.73 97.8458 214.779 96.2092 213.098 95.0149C211.417 93.8427 209.249 93.2455 206.595 93.2455C204.715 93.2455 203.123 93.533 201.774 94.0859C200.425 94.661 199.407 95.413 198.699 96.3861C197.992 97.3593 197.616 98.4651 197.616 99.7037C197.616 100.743 197.859 101.628 198.324 102.402C198.81 103.154 199.451 103.817 200.27 104.326C201.088 104.857 202.017 105.299 203.012 105.653C204.008 106.007 205.025 106.317 206.042 106.56L210.709 107.732C212.589 108.174 214.38 108.75 216.128 109.502C217.875 110.253 219.423 111.182 220.817 112.31C222.188 113.438 223.294 114.81 224.09 116.402C224.908 117.994 225.306 119.874 225.306 122.02C225.306 124.939 224.554 127.483 223.072 129.694C221.591 131.906 219.445 133.631 216.636 134.87C213.828 136.108 210.444 136.728 206.463 136.728C202.482 136.728 199.252 136.13 196.421 134.936C193.59 133.742 191.379 131.995 189.764 129.694C188.172 127.394 187.309 124.607 187.177 121.312H196.023C196.156 123.037 196.687 124.475 197.616 125.625C198.545 126.775 199.783 127.637 201.287 128.19C202.791 128.765 204.494 129.031 206.374 129.031C208.254 129.031 210.046 128.743 211.527 128.146C213.009 127.549 214.159 126.731 215 125.669C215.84 124.607 216.26 123.369 216.283 121.953C216.283 120.671 215.884 119.587 215.132 118.746C214.38 117.906 213.341 117.198 212.014 116.623C210.687 116.048 209.117 115.539 207.347 115.075L201.707 113.615C197.616 112.576 194.387 110.961 192.02 108.816C189.654 106.671 188.459 103.817 188.459 100.257C188.459 97.3372 189.256 94.7716 190.848 92.582C192.44 90.3924 194.608 88.6673 197.35 87.4508C200.093 86.2344 203.211 85.6151 206.684 85.6151C210.156 85.6151 213.297 86.2344 215.951 87.4508C218.605 88.6673 220.706 90.3703 222.21 92.5156C223.736 94.6831 224.51 97.1602 224.554 99.947H215.907L215.951 99.9691Z" fill="#1D1D1D"/>
<path d="M249.126 105.52H227.717V98.7305H249.126V105.52ZM233.003 89.7952H241.783V124.762C241.783 125.934 241.96 126.841 242.336 127.461C242.712 128.08 243.177 128.5 243.774 128.721C244.371 128.942 245.035 129.053 245.765 129.053C246.317 129.053 246.826 129.009 247.291 128.92C247.755 128.832 248.109 128.765 248.352 128.699L249.834 135.555C249.37 135.71 248.706 135.887 247.821 136.086C246.937 136.285 245.897 136.396 244.659 136.418C242.469 136.484 240.479 136.153 238.709 135.423C236.94 134.693 235.546 133.543 234.529 131.995C233.512 130.446 233.003 128.5 233.025 126.178V89.751L233.003 89.7952Z" fill="#1D1D1D"/>
<path d="M264.785 136.728C262.419 136.728 260.296 136.307 258.416 135.445C256.536 134.604 255.054 133.344 253.948 131.685C252.864 130.026 252.311 127.969 252.311 125.514C252.311 123.413 252.709 121.666 253.483 120.295C254.258 118.923 255.319 117.818 256.668 116.999C258.017 116.181 259.521 115.539 261.224 115.119C262.905 114.699 264.675 114.389 266.466 114.19C268.656 113.969 270.425 113.748 271.774 113.571C273.123 113.394 274.119 113.084 274.738 112.686C275.357 112.288 275.667 111.669 275.667 110.829V110.674C275.667 108.838 275.136 107.445 274.052 106.427C272.969 105.432 271.398 104.923 269.386 104.923C267.24 104.923 265.537 105.388 264.277 106.339C263.016 107.268 262.175 108.374 261.733 109.656L253.528 108.484C254.169 106.228 255.231 104.326 256.735 102.8C258.217 101.274 260.052 100.124 262.198 99.3498C264.343 98.5757 266.732 98.1997 269.319 98.1997C271.111 98.1997 272.902 98.3988 274.672 98.819C276.441 99.2392 278.078 99.9248 279.537 100.898C280.997 101.871 282.191 103.176 283.098 104.813C284.005 106.449 284.447 108.528 284.447 111.005V135.931H275.999V130.822H275.711C275.18 131.862 274.428 132.835 273.477 133.72C272.526 134.626 271.31 135.334 269.872 135.887C268.435 136.418 266.732 136.705 264.785 136.705M267.063 130.247C268.833 130.247 270.359 129.893 271.642 129.186C272.946 128.478 273.942 127.549 274.627 126.377C275.335 125.205 275.689 123.944 275.689 122.573V118.194C275.424 118.415 274.959 118.636 274.296 118.835C273.632 119.034 272.902 119.189 272.106 119.344C271.288 119.498 270.491 119.609 269.695 119.742C268.899 119.852 268.213 119.941 267.638 120.029C266.333 120.206 265.161 120.494 264.122 120.914C263.082 121.334 262.264 121.887 261.667 122.595C261.07 123.325 260.76 124.231 260.76 125.382C260.76 126.996 261.357 128.213 262.529 129.053C263.702 129.871 265.206 130.292 267.041 130.292" fill="#1D1D1D"/>
<path d="M299.708 114.146V135.976H290.927V98.7305H299.31V105.056H299.752C300.615 102.977 301.986 101.318 303.866 100.08C305.746 98.8411 308.09 98.2439 310.855 98.2439C313.421 98.2439 315.676 98.7968 317.579 99.9027C319.503 101.009 320.985 102.601 322.046 104.68C323.108 106.759 323.617 109.302 323.617 112.266V135.976H314.836V113.615C314.836 111.116 314.195 109.17 312.912 107.776C311.629 106.361 309.86 105.675 307.582 105.675C306.033 105.675 304.684 106.007 303.49 106.67C302.296 107.334 301.367 108.307 300.703 109.568C300.04 110.829 299.686 112.355 299.686 114.146" fill="#1D1D1D"/>
<path d="M343.323 136.639C340.403 136.639 337.771 135.887 335.471 134.383C333.171 132.879 331.335 130.69 329.986 127.837C328.637 124.983 327.974 121.511 327.974 117.419C327.974 113.328 328.659 109.789 330.031 106.936C331.402 104.083 333.237 101.915 335.582 100.456C337.904 98.9959 340.514 98.2661 343.367 98.2661C345.557 98.2661 347.348 98.6421 348.742 99.3719C350.157 100.102 351.263 100.986 352.081 102.004C352.9 103.021 353.541 103.994 354.005 104.901H354.381V86.3229H363.184V135.998H354.558V130.137H354.028C353.585 131.044 352.922 131.995 352.059 133.012C351.197 134.029 350.069 134.892 348.653 135.6C347.238 136.307 345.468 136.661 343.345 136.661M345.8 129.451C347.658 129.451 349.25 128.942 350.555 127.947C351.86 126.952 352.855 125.536 353.541 123.723C354.227 121.909 354.558 119.808 354.558 117.397C354.558 114.987 354.227 112.885 353.563 111.116C352.9 109.347 351.904 107.953 350.599 106.98C349.294 105.985 347.702 105.498 345.8 105.498C343.898 105.498 342.217 106.007 340.89 107.024C339.585 108.042 338.59 109.457 337.926 111.249C337.263 113.04 336.931 115.097 336.931 117.397C336.931 119.697 337.263 121.799 337.926 123.612C338.59 125.426 339.585 126.863 340.912 127.903C342.239 128.942 343.854 129.473 345.778 129.473" fill="#1D1D1D"/>
<path d="M380.192 136.728C377.826 136.728 375.702 136.307 373.822 135.445C371.942 134.604 370.461 133.344 369.355 131.685C368.271 130.026 367.718 127.969 367.718 125.514C367.718 123.413 368.116 121.666 368.89 120.295C369.664 118.923 370.726 117.818 372.075 116.999C373.424 116.181 374.928 115.539 376.631 115.119C378.312 114.699 380.081 114.389 381.873 114.19C384.063 113.969 385.832 113.748 387.181 113.571C388.53 113.394 389.525 113.084 390.145 112.686C390.764 112.288 391.074 111.669 391.074 110.829V110.674C391.074 108.838 390.543 107.445 389.459 106.427C388.375 105.432 386.805 104.923 384.77 104.923C382.625 104.923 380.922 105.388 379.661 106.339C378.401 107.268 377.56 108.374 377.118 109.656L368.912 108.484C369.554 106.228 370.615 104.326 372.119 102.8C373.601 101.274 375.437 100.124 377.582 99.3498C379.728 98.5757 382.116 98.1997 384.704 98.1997C386.495 98.1997 388.287 98.3988 390.056 98.819C391.826 99.2392 393.462 99.9248 394.922 100.898C396.382 101.871 397.576 103.176 398.483 104.813C399.39 106.449 399.832 108.528 399.832 111.005V135.931H391.383V130.822H391.096C390.565 131.862 389.813 132.835 388.862 133.72C387.911 134.626 386.694 135.334 385.257 135.887C383.819 136.418 382.116 136.705 380.17 136.705M382.448 130.247C384.217 130.247 385.743 129.893 387.026 129.186C388.331 128.478 389.326 127.549 390.012 126.377C390.72 125.205 391.074 123.944 391.074 122.573V118.194C390.808 118.415 390.344 118.636 389.68 118.835C389.017 119.034 388.287 119.189 387.491 119.344C386.672 119.498 385.876 119.609 385.08 119.742C384.284 119.852 383.598 119.941 383.023 120.029C381.718 120.206 380.546 120.494 379.506 120.914C378.467 121.334 377.649 121.887 377.051 122.595C376.454 123.325 376.145 124.231 376.145 125.382C376.145 126.996 376.742 128.213 377.914 129.053C379.086 129.871 380.59 130.292 382.426 130.292" fill="#1D1D1D"/>
<path d="M406.312 135.976V98.7305H414.827V104.945H415.203C415.889 102.8 417.061 101.141 418.698 99.9691C420.356 98.7968 422.259 98.2218 424.382 98.2218C424.868 98.2218 425.421 98.2218 426.018 98.2882C426.616 98.3324 427.124 98.3987 427.545 98.4651V106.538C427.169 106.405 426.593 106.295 425.775 106.184C424.979 106.073 424.205 106.029 423.453 106.029C421.86 106.029 420.423 106.383 419.14 107.069C417.879 107.754 416.884 108.705 416.154 109.922C415.424 111.138 415.071 112.532 415.071 114.124V136.02H406.29L406.312 135.976Z" fill="#1D1D1D"/>
<path d="M443.955 136.639C441.036 136.639 438.404 135.887 436.104 134.383C433.804 132.879 431.968 130.69 430.619 127.837C429.27 124.983 428.606 121.511 428.606 117.419C428.606 113.328 429.292 109.789 430.663 106.936C432.034 104.083 433.87 101.915 436.214 100.456C438.537 98.9959 441.147 98.2661 444 98.2661C446.189 98.2661 447.981 98.6421 449.396 99.3719C450.812 100.102 451.918 100.986 452.736 102.004C453.554 103.021 454.196 103.994 454.66 104.901H455.014V86.3229H463.817V135.998H455.191V130.137H454.66C454.196 131.044 453.554 131.995 452.692 133.012C451.829 134.029 450.701 134.892 449.308 135.6C447.892 136.307 446.123 136.661 444 136.661M446.455 129.451C448.313 129.451 449.905 128.942 451.21 127.947C452.515 126.93 453.51 125.536 454.196 123.723C454.881 121.909 455.213 119.808 455.213 117.397C455.213 114.987 454.881 112.885 454.196 111.116C453.532 109.347 452.537 107.953 451.232 106.98C449.927 105.985 448.335 105.498 446.433 105.498C444.531 105.498 442.85 106.007 441.523 107.024C440.218 108.042 439.222 109.457 438.559 111.249C437.895 113.04 437.564 115.097 437.564 117.397C437.564 119.697 437.895 121.799 438.581 123.612C439.267 125.426 440.24 126.863 441.567 127.903C442.894 128.942 444.508 129.473 446.433 129.473" fill="#1D1D1D"/>
<path d="M499.204 108.573L491.197 109.457C490.976 108.639 490.578 107.887 490.025 107.179C489.472 106.471 488.72 105.896 487.791 105.454C486.862 105.012 485.712 104.791 484.341 104.791C482.505 104.791 480.979 105.189 479.741 105.985C478.502 106.781 477.905 107.798 477.905 109.059C477.905 110.143 478.281 111.028 479.099 111.713C479.918 112.399 481.267 112.952 483.169 113.394L489.517 114.743C493.033 115.495 495.665 116.712 497.39 118.348C499.115 120.007 499.978 122.152 500 124.829C500 127.173 499.292 129.23 497.943 131.021C496.594 132.813 494.714 134.206 492.325 135.201C489.937 136.197 487.194 136.705 484.076 136.705C479.52 136.705 475.848 135.754 473.061 133.83C470.275 131.906 468.616 129.252 468.085 125.824L476.644 125.005C477.02 126.686 477.861 127.947 479.121 128.81C480.382 129.672 482.019 130.092 484.054 130.092C486.088 130.092 487.813 129.672 489.074 128.81C490.335 127.947 490.976 126.885 490.976 125.625C490.976 124.563 490.556 123.678 489.76 122.993C488.941 122.307 487.681 121.754 485.956 121.4L479.608 120.073C476.025 119.321 473.393 118.083 471.69 116.313C469.965 114.544 469.125 112.31 469.147 109.59C469.147 107.29 469.766 105.299 471.027 103.618C472.287 101.937 474.057 100.61 476.335 99.6815C478.613 98.7525 481.223 98.2881 484.208 98.2881C488.565 98.2881 492.016 99.217 494.537 101.075C497.058 102.933 498.607 105.454 499.204 108.617" fill="#1D1D1D"/>
<path d="M189.565 70.1773V20.5024H205.6C209.117 20.5024 212.08 21.1881 214.447 22.5372C216.813 23.8863 218.605 25.7221 219.799 28.0222C220.993 30.3445 221.613 32.9322 221.613 35.8296C221.613 38.7269 221.016 41.3367 219.821 43.659C218.627 45.9813 216.836 47.817 214.491 49.1661C212.125 50.5153 209.205 51.2009 205.689 51.2009H193.082V47.1314H205.578C208.188 47.1314 210.333 46.6448 212.058 45.6716C213.783 44.6985 215.044 43.3493 215.907 41.6685C216.747 39.9654 217.189 38.0413 217.189 35.8738C217.189 33.7063 216.769 31.7821 215.907 30.0791C215.066 28.3761 213.761 27.0491 212.058 26.0759C210.333 25.1028 208.166 24.6162 205.534 24.6162H194.166V70.1773H189.632H189.565Z" fill="#1D1D1D"/>
<path d="M240.39 70.9515C237.161 70.9515 234.33 70.1331 231.875 68.4965C229.398 66.8598 227.474 64.6039 226.08 61.7287C224.687 58.8313 224.001 55.5138 224.001 51.7318C224.001 47.9497 224.687 44.5658 226.08 41.6464C227.474 38.7491 229.398 36.4931 231.875 34.8565C234.33 33.2419 237.183 32.4236 240.39 32.4236C243.597 32.4236 246.45 33.2419 248.905 34.8786C251.36 36.5152 253.284 38.7712 254.678 41.6685C256.071 44.5658 256.779 47.9055 256.779 51.7318C256.779 55.558 256.093 58.8535 254.7 61.7287C253.307 64.6039 251.382 66.8819 248.905 68.4965C246.45 70.1331 243.597 70.9515 240.39 70.9515ZM240.39 66.9925C242.978 66.9925 245.167 66.3069 246.959 64.9135C248.75 63.5202 250.122 61.6844 251.051 59.3621C251.98 57.062 252.444 54.4964 252.444 51.7318C252.444 48.9671 251.98 46.4016 251.051 44.0793C250.122 41.757 248.75 39.877 246.959 38.4837C245.167 37.0682 242.978 36.3825 240.39 36.3825C237.803 36.3825 235.635 37.0903 233.821 38.4837C232.03 39.8991 230.659 41.757 229.73 44.0793C228.801 46.4016 228.336 48.9671 228.336 51.7318C228.336 54.4964 228.801 57.062 229.73 59.3621C230.659 61.6844 232.03 63.5202 233.821 64.9135C235.613 66.3069 237.803 66.9925 240.39 66.9925Z" fill="#1D1D1D"/>
<path d="M276.618 70.9514C273.566 70.9514 270.89 70.1552 268.589 68.5185C266.289 66.904 264.498 64.6481 263.215 61.7507C261.932 58.8534 261.291 55.4916 261.291 51.6432C261.291 47.7949 261.932 44.4552 263.215 41.5579C264.498 38.6827 266.289 36.4267 268.612 34.8122C270.934 33.1976 273.61 32.4014 276.684 32.4014C278.94 32.4014 280.842 32.7995 282.346 33.5957C283.85 34.3919 285.044 35.3872 285.951 36.5594C286.858 37.7316 287.566 38.8817 288.052 40.0097H288.45V20.5024H292.785V70.1773H288.561V63.2768H288.052C287.544 64.4048 286.836 65.577 285.929 66.7492C285 67.9435 283.784 68.9388 282.28 69.735C280.776 70.5312 278.874 70.9514 276.618 70.9514ZM277.127 66.9925C279.537 66.9925 281.594 66.329 283.275 65.0241C284.978 63.7191 286.261 61.8834 287.168 59.5611C288.075 57.2389 288.517 54.5848 288.517 51.5769C288.517 48.569 288.075 45.9813 287.19 43.6811C286.305 41.403 285 39.5894 283.319 38.3067C281.616 37.0018 279.559 36.3604 277.127 36.3604C274.694 36.3604 272.548 37.046 270.823 38.3951C269.12 39.7443 267.815 41.58 266.931 43.858C266.046 46.1582 265.604 48.7238 265.604 51.599C265.604 54.4742 266.046 57.1062 266.931 59.4284C267.815 61.7507 269.12 63.6086 270.823 64.9798C272.526 66.3511 274.627 67.0367 277.082 67.0367" fill="#1D1D1D"/>
<path d="M314.858 70.9515C311.518 70.9515 308.621 70.111 306.166 68.4523C303.711 66.7935 301.787 64.5154 300.438 61.6181C299.089 58.7208 298.403 55.4253 298.403 51.7318C298.403 48.0382 299.089 44.6764 300.482 41.757C301.853 38.8375 303.778 36.5595 306.233 34.9007C308.688 33.2419 311.541 32.4236 314.792 32.4236C317.291 32.4236 319.547 32.9102 321.56 33.8612C323.572 34.8343 325.253 36.1835 326.558 37.9086C327.885 39.6559 328.703 41.6685 329.035 43.9908H324.678C324.236 41.8897 323.13 40.0982 321.427 38.5942C319.702 37.0903 317.512 36.3383 314.858 36.3383C312.47 36.3383 310.368 36.9797 308.555 38.2625C306.719 39.5453 305.304 41.3368 304.286 43.6148C303.269 45.915 302.738 48.5469 302.738 51.5548C302.738 54.5627 303.247 57.261 304.242 59.5612C305.237 61.8835 306.653 63.6971 308.466 65.002C310.28 66.3069 312.425 66.9704 314.858 66.9704C316.517 66.9704 318.021 66.6608 319.37 66.0415C320.741 65.4222 321.891 64.5375 322.82 63.3874C323.749 62.2374 324.368 60.8661 324.7 59.2958H329.057C328.726 61.5517 327.929 63.5423 326.669 65.2895C325.408 67.0368 323.749 68.4301 321.737 69.4254C319.724 70.4207 317.424 70.9294 314.836 70.9294" fill="#1D1D1D"/>
<path d="M345.623 71.0178C343.367 71.0178 341.332 70.5755 339.452 69.6908C337.594 68.8061 336.113 67.5233 335.007 65.8646C333.901 64.1837 333.37 62.1489 333.37 59.7603C333.37 57.9245 333.724 56.3542 334.41 55.1157C335.095 53.855 336.091 52.8155 337.373 52.0193C338.656 51.201 340.16 50.5817 341.907 50.0951C343.655 49.6306 345.579 49.2547 347.68 49.0114C349.759 48.746 351.528 48.5248 352.988 48.3257C354.426 48.1267 355.531 47.817 356.306 47.3968C357.057 46.9766 357.456 46.291 357.456 45.3621V44.4995C357.456 41.956 356.704 39.9655 355.178 38.5058C353.674 37.046 351.484 36.3162 348.675 36.3162C345.866 36.3162 343.809 36.9133 342.106 38.0855C340.425 39.2577 339.231 40.6511 338.546 42.2657L334.454 40.7838C335.294 38.7491 336.467 37.1124 337.948 35.896C339.43 34.6795 341.089 33.7948 342.947 33.2419C344.783 32.7111 346.662 32.4236 348.542 32.4236C349.958 32.4236 351.44 32.6005 352.988 32.9765C354.536 33.3525 355.974 33.9939 357.301 34.9007C358.628 35.8075 359.712 37.0903 360.53 38.7048C361.348 40.3194 361.768 42.3984 361.768 44.8755V70.1774H357.456V64.2942H357.19C356.681 65.4001 355.907 66.4617 354.89 67.5012C353.873 68.5407 352.59 69.3812 351.064 70.0447C349.538 70.7082 347.724 71.0399 345.667 71.0399M346.242 67.081C348.542 67.081 350.533 66.5723 352.214 65.5549C353.895 64.5375 355.2 63.1884 356.106 61.4854C357.013 59.8045 357.478 57.9245 357.478 55.8898V50.5153C357.146 50.825 356.615 51.0904 355.863 51.3337C355.111 51.5769 354.249 51.7981 353.275 51.9751C352.302 52.152 351.329 52.3289 350.356 52.4395C349.383 52.5722 348.52 52.6828 347.746 52.7713C345.645 53.0367 343.854 53.4348 342.372 53.9877C340.89 54.5406 339.74 55.2926 338.944 56.2658C338.147 57.2168 337.749 58.4553 337.749 59.9593C337.749 62.2152 338.568 63.9625 340.182 65.201C341.797 66.4396 343.831 67.0589 346.264 67.0589" fill="#1D1D1D"/>
<path d="M394.502 41.0935L390.543 42.1994C390.145 41.0935 389.614 40.0761 388.884 39.1693C388.176 38.2625 387.247 37.5548 386.097 37.0019C384.947 36.471 383.554 36.2056 381.873 36.2056C379.352 36.2056 377.273 36.8028 375.658 37.9971C374.043 39.1914 373.225 40.7396 373.225 42.6196C373.225 44.212 373.778 45.5169 374.884 46.5122C375.99 47.5075 377.693 48.3037 380.015 48.8787L385.633 50.25C388.751 51.0019 391.096 52.2184 392.644 53.855C394.192 55.4917 394.988 57.5707 394.988 60.0699C394.988 62.1711 394.413 64.0289 393.241 65.6655C392.069 67.3022 390.454 68.585 388.375 69.5139C386.296 70.4428 383.886 70.9073 381.165 70.9073C377.538 70.9073 374.53 70.089 372.164 68.4523C369.797 66.8156 368.293 64.4491 367.63 61.3306L371.788 60.3132C372.318 62.5249 373.358 64.2058 374.928 65.3338C376.476 66.4618 378.555 67.0368 381.099 67.0368C383.952 67.0368 386.252 66.3954 387.955 65.1126C389.68 63.8298 390.521 62.2153 390.521 60.269C390.521 58.765 390.012 57.5044 389.017 56.4649C388.021 55.4475 386.495 54.6734 384.461 54.2089L378.378 52.7492C375.149 51.9751 372.761 50.7365 371.212 49.0556C369.664 47.3748 368.89 45.2957 368.89 42.7965C368.89 40.7396 369.443 38.926 370.571 37.3778C371.677 35.8075 373.225 34.5911 375.171 33.7064C377.118 32.8217 379.352 32.3794 381.873 32.3794C385.279 32.3794 388.021 33.1535 390.056 34.7017C392.091 36.2499 393.573 38.3731 394.48 41.0714" fill="#1D1D1D"/>
<path d="M416.088 36.67H398.306V32.9101H416.088V36.67ZM403.857 23.9749H408.192V60.4459C408.192 61.9941 408.458 63.2105 408.988 64.0952C409.519 64.9799 410.227 65.5991 411.067 65.9751C411.93 66.329 412.837 66.528 413.81 66.528C414.385 66.528 414.871 66.4838 415.27 66.4175C415.668 66.3511 416.022 66.2626 416.331 66.1963L417.26 70.0889C416.84 70.2437 416.331 70.3985 415.712 70.5312C415.093 70.6639 414.341 70.7303 413.434 70.7303C411.841 70.7303 410.315 70.3764 408.856 69.6908C407.396 69.0052 406.202 67.9657 405.251 66.5944C404.322 65.2231 403.835 63.5201 403.835 61.4854V23.997L403.857 23.9749Z" fill="#1D1D1D"/>
</g>
<defs>
<clipPath id="clip0_525_735">
<rect width="500" height="223.139" fill="white"/>
</clipPath>
</defs>
</svg>
